PathFileType	4	(X/Y/Z)	C:\Users\Basilio\Documents\Thesis Gigler\squatting_fais\c3dfiles\058\SLS_front_pre5\markers_experimental.trc
DataRate	CameraRate	NumFrames	NumMarkers	Units	OrigDataRate	OrigDataStartFrame	OrigNumFrames
200.000000	200.000000	4	61	mm	200.000000	154	1236
Frame#	Time	FHD			LBHD			RBHD			C7			T10			CLAV			LSHO			LUUPA			LMUPA			LDUPA			LLEP			LMEP			LRAD			LUL			LRFIN			RSHO			RUPA1			RMUPA			RDUPA			RLEP			RMEP			RRAD			RUL			RUFIN			LASI			RASI			USACR			LSACR			RSACR			LTHI1			LTHI2			LTHI3			LTHI4			LLFC			LMFC			LTIB1			LTIB2			LTIB3			LTIB4			LLMAL			LMMAL			LHEE			LMT1			LMT2			LMT5			RTHI			RTHI2			RTHI3			RTHI4			RLFC			RMFC			RTIB1			RTIB2			RTIB3			RTIB4			RLMAL			RMMAL			RHEE			RMT1			RMT2			RMT5			
		X1	Y1	Z1	X2	Y2	Z2	X3	Y3	Z3	X4	Y4	Z4	X5	Y5	Z5	X6	Y6	Z6	X7	Y7	Z7	X8	Y8	Z8	X9	Y9	Z9	X10	Y10	Z10	X11	Y11	Z11	X12	Y12	Z12	X13	Y13	Z13	X14	Y14	Z14	X15	Y15	Z15	X16	Y16	Z16	X17	Y17	Z17	X18	Y18	Z18	X19	Y19	Z19	X20	Y20	Z20	X21	Y21	Z21	X22	Y22	Z22	X23	Y23	Z23	X24	Y24	Z24	X25	Y25	Z25	X26	Y26	Z26	X27	Y27	Z27	X28	Y28	Z28	X29	Y29	Z29	X30	Y30	Z30	X31	Y31	Z31	X32	Y32	Z32	X33	Y33	Z33	X34	Y34	Z34	X35	Y35	Z35	X36	Y36	Z36	X37	Y37	Z37	X38	Y38	Z38	X39	Y39	Z39	X40	Y40	Z40	X41	Y41	Z41	X42	Y42	Z42	X43	Y43	Z43	X44	Y44	Z44	X45	Y45	Z45	X46	Y46	Z46	X47	Y47	Z47	X48	Y48	Z48	X49	Y49	Z49	X50	Y50	Z50	X51	Y51	Z51	X52	Y52	Z52	X53	Y53	Z53	X54	Y54	Z54	X55	Y55	Z55	X56	Y56	Z56	X57	Y57	Z57	X58	Y58	Z58	X59	Y59	Z59	X60	Y60	Z60	X61	Y61	Z61	

155	0.77	-310.3321533203126	1808.643676757813	-665.2155761718751	-465.5625915527345	1756.204467773438	-739.8059692382814	-297.5202331542969	1816.544311523438	-807.2061767578127	-476.2440185546876	1596.77294921875	-760.4849243164064	-473.0699157714845	1287.044189453125	-751.0723876953126	-317.3443298339844	1556.468994140625	-740.6292724609376	-328.5955810546876	1610.544189453125	-896.243835449219	-179.171371459961	1525.697265625	-1012.20458984375	-150.8248138427735	1562.066772460938	-991.0270996093752	-109.7604370117188	1521.15087890625	-1008.064025878906	-35.99888992309571	1520.09130859375	-995.649108886719	-32.85486602783204	1467.016967773438	-957.361267089844	233.5973815917969	1522.765991210938	-907.027282714844	234.2693328857422	1535.578979492188	-988.2673339843752	337.6902770996094	1537.467163085938	-914.925231933594	-350.6287536621094	1607.604614257813	-585.2538452148439	-202.8148193359376	1506.51416015625	-468.1839599609376	-175.0501403808594	1542.97998046875	-488.6778259277345	-133.1697845458985	1510.279174804688	-464.0722045898439	-66.6661834716797	1495.714599609375	-465.5653381347657	-58.05807876586915	1437.887329101563	-517.1860961914064	209.8809509277344	1506.166137695313	-526.1400756835939	202.4817962646485	1517.915893554688	-445.2041625976564	300.3271484375001	1528.414428710938	-506.4321594238282	-290.2351684570313	1106.4453125	-895.357604980469	-272.7893371582032	1089.356201171875	-654.6333618164064	-477.5378723144532	1164.78271484375	-747.3618774414064	-485.1456298828126	1134.488647460938	-776.319274902344	-476.435760498047	1130.836791992188	-719.3499755859376	-246.6444549560547	842.3074951171877	-978.1907348632815	-192.1679687500001	776.9387207031252	-974.314147949219	-151.4934997558594	789.4273071289065	-947.014831542969	-201.4976501464844	718.0376586914064	-974.1470947265627	-180.1968688964844	622.9019775390626	-970.8952636718752	-158.3052368164063	609.8654785156251	-842.7307739257815	-127.7503967285157	486.3906555175782	-945.7692871093752	-189.0200805664063	456.888885498047	-998.482360839844	-147.978744506836	445.5166931152345	-979.975769042969	-152.1516723632813	361.6116943359376	-959.642761230469	-230.6781921386719	170.4222106933594	-978.6673583984377	-195.6165924072266	181.3078155517578	-892.5017089843752	-288.8617553710938	139.7609100341797	-918.6084594726565	-67.35263824462892	118.7756805419922	-932.5410766601565	-65.83038330078126	123.7003936767578	-980.0524902343752	-125.227035522461	100.9134902954102	-1024.16162109375	-369.2956237792969	872.7702636718752	-595.9425048828126	-330.4619750976563	818.7590332031252	-597.6129150390626	-297.6151733398438	820.193542480469	-599.6217041015626	-356.3561706542969	740.4812011718751	-615.6535034179689	-346.0325012207032	560.5488281250001	-639.9871826171876	-314.2950134277344	553.6599121093751	-773.821716308594	-300.6365661621094	359.0724792480469	-734.0866088867189	-339.1421813964844	279.0000000000001	-670.6729736328126	-304.3773498535157	273.0198059082032	-704.1690063476564	-317.1975708007813	230.1123809814454	-740.0796508789064	-379.9401550292969	124.1656188964844	-702.2434082031251	-349.8856506347657	144.7105102539063	-790.2086181640627	-445.4763793945314	106.0738677978516	-764.0498657226564	-236.1581573486329	58.6351890563965	-771.9079589843752	-231.2013854980469	61.02651596069337	-719.2443847656251	-282.9707946777344	32.09885787963868	-667.8558959960939	
156	0.775	-310.4364929199219	1808.430908203125	-664.6548461914064	-465.4973449707032	1756.174194335938	-739.1464233398439	-297.6670227050782	1816.6708984375	-806.409606933594	-476.3991088867189	1596.670043945313	-759.7459716796876	-473.2555541992189	1287.248291015625	-750.3243408203126	-317.3164672851563	1556.57177734375	-740.1344604492189	-328.5519104003907	1610.622802734375	-895.6700439453127	-179.0967254638672	1526.6064453125	-1011.575134277344	-150.7533569335938	1562.967529296875	-990.1689453125002	-109.4277648925782	1522.259033203125	-1007.296264648438	-35.97909164428712	1521.397094726563	-994.8194580078127	-32.75103759765626	1467.94775390625	-956.6194458007815	233.6753540039063	1524.307250976563	-906.238220214844	234.4513092041016	1537.377807617188	-987.6053466796877	337.4787902832032	1539.273315429688	-914.225769042969	-350.1831665039063	1607.827270507813	-584.5707397460939	-202.2708435058594	1507.66259765625	-468.0054626464845	-174.5375213623047	1544.196411132813	-488.6407470703126	-132.5083312988282	1511.542846679688	-464.0611267089845	-65.85349273681642	1497.54833984375	-465.8340759277345	-57.22785949707033	1439.884765625	-517.2515258789064	210.8372955322266	1509.342529296875	-527.1156616210939	203.2097473144532	1520.881591796875	-446.1999816894532	301.1041259765626	1531.952758789063	-507.6284790039064	-290.4607543945313	1106.64697265625	-895.1248168945315	-272.9014282226563	1089.349853515625	-654.3286743164064	-477.708709716797	1164.837768554688	-746.9940795898439	-485.2416076660157	1134.605346679688	-776.013366699219	-476.7166748046876	1130.91845703125	-718.8223266601564	-246.3439025878907	842.8121337890627	-977.881286621094	-191.7813568115235	777.6489257812502	-973.799987792969	-150.7353668212891	790.130310058594	-946.6370849609377	-200.9435729980469	718.5748291015626	-973.7056274414065	-179.1837005615235	623.5966186523439	-970.3377075195315	-157.7041931152344	610.8085937500001	-842.093933105469	-125.153923034668	487.7985839843751	-944.7492675781252	-184.3419799804688	456.4507751464845	-998.035583496094	-144.9058837890625	446.2989501953126	-978.7940673828127	-147.8528594970703	362.5420532226563	-958.459655761719	-223.6716461181641	170.1255035400391	-977.4755859375002	-189.4976501464844	181.696762084961	-891.0841064453127	-282.2976684570313	138.7280731201172	-917.7817993164065	-59.54822540283205	121.0175170898438	-929.8896484375002	-60.05676269531251	123.7865600585938	-976.7524414062502	-115.6098785400391	101.7368927001953	-1022.072143554688	-369.4791564941407	872.8109130859377	-595.6888427734376	-330.6758117675782	818.754577636719	-597.3709106445314	-298.0473022460938	820.2033691406252	-599.2212524414064	-356.9801940917969	740.4780883789064	-615.2962646484376	-346.5866699218751	560.5249023437501	-639.6365356445314	-314.1446838378907	553.7205200195314	-773.3345336914065	-300.4566955566407	359.2961425781251	-733.5606689453126	-339.4920349121094	278.9673156738282	-670.5391845703126	-304.5092163085938	273.0908203125001	-703.6237792968751	-317.1629638671876	230.1602478027344	-739.7244873046876	-379.9416809082032	124.1779174804688	-702.1532592773439	-349.6608581542969	144.7757263183594	-789.915710449219	-445.4595947265626	106.1082916259766	-763.9645385742189	-236.1586608886719	58.66616439819337	-771.852233886719	-231.2013854980469	60.85976028442384	-719.1688232421876	-282.9410095214844	32.05039215087891	-667.7722167968751	
157	0.78	-310.4843750000001	1808.699340820313	-663.9830322265626	-465.4946289062501	1756.248168945313	-738.6063842773439	-297.8642883300782	1816.9462890625	-805.7078857421877	-476.4827880859376	1596.796630859375	-759.0790405273439	-473.4022216796876	1287.397827148438	-749.7960815429689	-317.2462158203126	1556.728881835938	-739.6367797851564	-328.4387512207032	1610.791381835938	-895.1315917968752	-178.6660766601563	1527.317993164063	-1010.836730957031	-150.7378845214844	1563.916381835938	-989.4704589843752	-109.4288330078125	1523.3583984375	-1006.440551757813	-35.77659606933594	1522.569091796875	-993.9600830078127	-32.40903854370118	1469.322387695313	-956.0523071289065	233.8295898437501	1526.093994140625	-905.5324707031252	234.2578735351563	1539.085083007813	-986.7163696289065	337.5337829589844	1541.072143554688	-913.6269531250002	-349.9249267578126	1608.009155273438	-584.2712402343751	-201.036605834961	1508.724243164063	-467.9102478027345	-173.8267822265625	1545.126586914063	-488.7571105957032	-131.8483581542969	1512.877807617188	-463.8446350097657	-64.66846466064455	1499.313598632813	-466.1747436523439	-56.1091651916504	1441.24462890625	-517.3325805664064	211.4398040771485	1512.404541015625	-528.0538940429689	203.7451782226563	1523.745239257813	-447.1740722656251	301.5961608886719	1535.199462890625	-508.7773437500001	-290.5867614746094	1106.706176757813	-894.8189697265627	-273.1947021484376	1089.475952148438	-654.0358886718751	-478.1856994628907	1164.797729492188	-746.5053710937501	-485.372039794922	1134.727294921875	-775.7435302734377	-476.8675537109376	1130.996215820313	-718.4866333007814	-245.8734588623047	843.3370361328127	-977.520935058594	-191.4319915771485	778.2607421875002	-973.2496337890627	-150.4016571044922	790.5839843750002	-946.029724121094	-200.028060913086	719.3364868164064	-973.1250000000002	-178.3370361328125	624.0084228515626	-969.6633911132815	-156.9081420898438	611.5486450195314	-841.271179199219	-122.7773590087891	488.779022216797	-943.5720825195315	-181.1963806152344	456.7420654296876	-997.166198730469	-141.6449890136719	447.0555114746095	-977.7783203125002	-143.3522338867188	363.6932983398438	-957.1890258789065	-216.5000610351563	169.9230651855469	-976.3021240234377	-183.1734924316407	182.1291961669922	-889.7578735351565	-274.6185913085938	137.9146881103516	-917.1700439453127	-52.65682601928712	122.607406616211	-927.036560058594	-52.45577239990236	126.2333068847657	-974.0435180664065	-107.4480361938477	102.8611679077149	-1019.61767578125	-369.5808410644532	872.8640747070315	-595.5718383789064	-331.2160644531251	818.893737792969	-596.9112548828126	-298.4825744628907	820.3026123046877	-598.8190307617189	-357.1556396484376	740.6405029296876	-614.9503784179689	-346.9065246582032	560.5778198242189	-639.3442993164064	-313.8354492187501	553.7857055664064	-772.8728637695315	-300.2402038574219	359.4124145507813	-733.2577514648439	-339.7436218261719	279.0308837890626	-670.2820434570314	-304.8917846679688	273.2655639648438	-703.1276245117189	-317.1914672851563	230.1491394042969	-739.3086547851564	-379.9133300781251	124.2091140747071	-702.0764770507814	-349.3518066406251	144.8199005126953	-789.5965576171877	-445.4610595703126	106.1281661987305	-763.9348754882814	-236.2114562988282	58.67672348022462	-771.7384033203127	-231.2449493408204	60.84203720092775	-719.1046142578126	-282.9726257324219	31.94404602050782	-667.7585449218751	
158	0.785	-310.5704650878907	1808.945556640625	-663.2796020507814	-465.5535888671876	1756.193115234375	-737.7711791992189	-297.8246765136719	1817.089233398438	-804.9725341796877	-476.420867919922	1597.048950195313	-758.4771728515626	-473.4348144531251	1287.5078125	-749.4973144531251	-317.2405090332032	1556.841552734375	-739.1402587890626	-328.6106567382813	1611.005126953125	-894.5791625976565	-178.6289672851563	1528.229248046875	-1010.206359863281	-150.8650054931641	1564.880737304688	-988.5796508789065	-109.5899353027344	1524.304321289063	-1005.645751953125	-35.82915115356446	1523.786987304688	-993.1292114257815	-32.45992660522462	1469.963989257813	-954.6857910156252	233.8758544921876	1527.522216796875	-904.839538574219	234.3602600097657	1540.749755859375	-985.9771728515627	337.4814147949219	1542.606689453125	-913.4124145507815	-349.7877197265626	1608.052001953125	-583.8881225585939	-200.4411621093751	1510.0439453125	-467.6297302246095	-173.5095672607422	1546.246948242188	-488.4417114257814	-130.9396057128907	1514.48486328125	-464.163055419922	-64.17066955566408	1500.823974609375	-466.3167724609376	-55.15951919555665	1442.845703125	-517.5250854492189	211.9676208496094	1515.13525390625	-529.0919189453126	204.9150695800782	1526.773681640625	-447.9329833984376	302.2203979492188	1538.4931640625	-509.8283996582032	-290.8819274902344	1106.7421875	-894.520690917969	-273.4163513183594	1089.535766601563	-653.7616577148439	-478.4370727539064	1164.963500976563	-746.1093139648439	-485.565155029297	1134.816528320313	-775.409606933594	-477.1325683593751	1130.970703125	-718.2193603515626	-245.6546478271485	843.8521728515627	-977.1446533203127	-191.1134796142578	778.9620361328127	-972.8545532226565	-149.7772216796875	791.5462646484377	-945.532897949219	-199.6140136718751	719.9263305664064	-972.5779418945315	-177.187255859375	624.5104980468751	-969.0872802734377	-156.0978546142578	612.3115844726564	-840.5076904296877	-120.3000793457032	490.0166320800782	-942.637634277344	-177.889877319336	457.1594238281251	-996.3001098632815	-138.1290588378907	448.0871582031251	-976.909851074219	-139.5560607910157	364.3842163085938	-956.1285400390627	-209.4667053222657	169.7097625732422	-975.2373657226565	-176.8678741455078	182.7400970458985	-888.5153808593752	-268.0034179687501	137.177978515625	-916.5963134765627	-45.51927566528321	124.9017639160157	-924.2581176757815	-44.77787017822266	127.8064727783203	-971.1549072265627	-98.804313659668	103.8973846435547	-1017.39208984375	-369.7730102539063	872.9086914062502	-595.4135742187501	-331.5544433593751	819.0401611328127	-596.5344238281251	-298.5397033691407	820.479431152344	-598.4740600585939	-357.3819274902344	740.7337036132814	-614.6955566406251	-347.2666625976563	560.5805053710939	-639.0816650390626	-313.9677734375001	553.7783813476564	-772.5081176757815	-300.1950073242188	359.4738464355469	-732.9805908203126	-339.8829040527344	278.5562744140626	-669.5820922851564	-305.1225891113282	273.3157653808594	-702.9232177734376	-317.1278076171876	230.1876831054688	-739.0780639648439	-379.9151000976563	124.2049636840821	-701.9994506835939	-350.0162963867188	144.6868133544922	-789.8812255859377	-445.4556884765626	106.1756439208985	-763.9043579101564	-236.2383270263672	58.66421508789064	-771.7612915039065	-231.2016296386719	60.78748703002931	-719.0715332031251	-282.9659729003907	31.95367431640626	-667.6925659179689	
